<svg width="35" height="35" viewBox="0 0 35 35" fill="none" xmlns="http://www.w3.org/2000/svg">
<path d="M17.6875 35.0001C16.6932 35.0001 15.6989 34.9205 14.7046 34.7415C13.7102 34.5626 12.7557 34.3239 11.821 33.9859C10.8864 33.6478 9.97161 33.2302 9.09661 32.7529C8.22161 32.2557 7.40627 31.6989 6.6307 31.0626C5.85513 30.4262 5.13922 29.7302 4.48297 28.9745C3.82672 28.2188 3.25002 27.4234 2.73297 26.5682C2.21593 25.7131 1.77843 24.8182 1.40059 23.8836C1.04263 22.9489 0.744338 21.9944 0.545474 21.0199C0.346611 20.0455 0.227283 19.0512 0.18751 18.0569C0.147737 17.0626 0.207406 16.0682 0.346611 15.0739C0.485815 14.0796 0.704558 13.1052 1.02274 12.1705C1.32104 11.216 1.71876 10.3012 2.17615 9.40631C2.63353 8.51142 3.17047 7.67619 3.78695 6.88074C4.40343 6.08529 5.05967 5.34949 5.79547 4.67335C6.53126 3.99722 7.30683 3.38074 8.14206 2.84381C8.97728 2.30688 9.85229 1.8296 10.7671 1.43188L11.3239 1.21313C11.5426 1.1137 11.7813 1.09381 12.0199 1.19324C12.2585 1.27279 12.4176 1.43188 12.537 1.65063C12.6364 1.86938 12.6563 2.10801 12.5568 2.34665C12.4773 2.58529 12.3182 2.74438 12.0994 2.86369L11.5625 3.08245C10.608 3.48017 9.71309 3.97733 8.85797 4.57392C8.00286 5.15063 7.22729 5.82676 6.49149 6.56256C5.77558 7.29835 5.11933 8.09381 4.56251 8.96881C4.00569 9.82392 3.52842 10.7387 3.15058 11.6932C2.77274 12.6478 2.47445 13.6421 2.29547 14.6563C2.11649 15.6705 2.01707 16.6847 2.03695 17.7188C2.05684 18.7529 2.15626 19.7671 2.37501 20.7813C2.59376 21.7955 2.89206 22.7699 3.30967 23.7245C3.7074 24.679 4.20456 25.5739 4.80115 26.429C5.37785 27.2841 6.05399 28.0597 6.78979 28.7955C7.52558 29.5313 8.32104 30.1677 9.19604 30.7245C10.0512 31.2813 10.9659 31.7586 11.9205 32.1364C12.875 32.5143 13.8693 32.8126 14.8835 32.9915C15.8977 33.1904 16.912 33.2699 17.946 33.2501C18.9801 33.2302 19.9943 33.1307 21.0085 32.912C22.0227 32.6932 22.9972 32.3949 23.9517 31.9773C25.0654 31.5001 26.0994 30.9035 27.0739 30.2074C28.0483 29.4915 28.9233 28.6961 29.7188 27.7813C30.5142 26.8665 31.1705 25.8921 31.7472 24.8182C32.304 23.7643 32.7415 22.6506 33.0597 21.4773C32.6818 21.4773 32.3239 21.4376 31.946 21.3779C31.5881 21.2984 31.2301 21.1989 30.8722 21.0597C30.5341 20.9205 30.196 20.7415 29.8779 20.5427C29.5597 20.3438 29.2813 20.1052 29.0227 19.8268C28.7642 19.5682 28.5256 19.2699 28.3068 18.9716C28.108 18.6535 27.929 18.3353 27.7898 17.9773C27.6506 17.6393 27.5313 17.2813 27.4716 16.9035C27.3921 16.5455 27.3722 16.1677 27.3722 15.7898V15.4518C26.8949 15.4915 26.4375 15.4716 25.9602 15.4319C25.483 15.3722 25.0256 15.2728 24.5881 15.1336C24.1307 14.9944 23.7131 14.7955 23.2955 14.5768C22.8779 14.358 22.5 14.0796 22.1421 13.7813C21.7841 13.483 21.446 13.1449 21.1676 12.7671C20.8693 12.3893 20.6108 12.0114 20.3921 11.5938C20.1733 11.1762 19.9943 10.7387 19.875 10.2813C19.7358 9.82392 19.6563 9.36654 19.6165 8.88926V8.33244C19.6364 7.69608 19.696 7.0796 19.8353 6.46313C19.2983 6.38358 18.8012 6.22449 18.3438 5.96597C17.8665 5.70744 17.4688 5.38926 17.1108 4.99154C16.7529 4.59381 16.4943 4.13642 16.2955 3.63926C16.0966 3.1421 16.0171 2.62506 15.9972 2.08813C15.9972 1.67051 16.0767 1.27279 16.2159 0.875059C16.2756 0.636422 16.4148 0.457445 16.6335 0.358013C16.8523 0.238695 17.071 0.238695 17.3097 0.338127C17.5483 0.397786 17.7273 0.536991 17.8267 0.755741C17.946 0.974491 17.946 1.19324 17.8466 1.43188C17.7472 1.67051 17.7273 1.92904 17.7472 2.20745C17.7472 2.5654 17.8068 2.92335 17.946 3.26142C18.0853 3.59949 18.2841 3.89779 18.5426 4.15631C18.8012 4.41483 19.0995 4.61369 19.4375 4.7529C19.7756 4.8921 20.1335 4.95176 20.4915 4.95176H21.0284C21.3864 4.8921 21.6847 4.99154 21.9034 5.28983C21.8835 5.46881 21.8438 5.66767 21.804 5.84665C21.446 6.60233 21.2671 7.41767 21.2472 8.2529C21.2472 8.96881 21.3864 9.66483 21.6449 10.3211C21.9233 10.9773 22.3012 11.5739 22.7983 12.091C23.2955 12.608 23.8722 13.0057 24.5284 13.2841C25.1847 13.5626 25.8807 13.7216 26.5966 13.7216C27.1137 13.7018 27.6307 13.6222 28.1279 13.5029C28.3665 13.4432 28.6051 13.4631 28.8239 13.6023C29.0426 13.7415 29.1818 13.9205 29.2216 14.1591V14.6961C29.1222 14.9944 29.0426 15.2927 29.0227 15.6109C28.983 15.929 29.0029 16.2273 29.0426 16.5455C29.0824 16.8637 29.162 17.162 29.2813 17.4404C29.4006 17.7387 29.5398 17.9972 29.7387 18.2557C29.9176 18.5143 30.1364 18.733 30.375 18.9319C30.6137 19.1307 30.8722 19.3097 31.1506 19.4489C31.429 19.5881 31.7273 19.6876 32.0256 19.7671C32.3239 19.8268 32.6421 19.8665 32.9404 19.8665C33.2387 19.8864 33.537 19.8466 33.8154 19.7671C34.1335 19.6478 34.3722 19.7273 34.5909 19.9859C34.8296 20.1847 34.9091 20.4432 34.8097 20.7614C34.6307 21.7557 34.3722 22.7302 34.0341 23.6847C33.696 24.6393 33.2585 25.554 32.7614 26.429C32.2642 27.304 31.6875 28.1393 31.0313 28.9148C30.375 29.6904 29.679 30.4063 28.9034 31.0626C28.1279 31.7188 27.3125 32.2955 26.4176 32.7927C25.5426 33.2898 24.6279 33.7273 23.6733 34.0654C22.7188 34.4035 21.7443 34.662 20.75 34.841C19.696 34.9205 18.7017 35.0001 17.6875 35.0001Z" fill="#00136F"/>
</svg>
